<svg width="1440" height="1024" viewBox="0 0 1440 1024" fill="none" xmlns="http://www.w3.org/2000/svg">
<g clip-path="url(#clip0)">
<rect width="1440" height="1024" fill="white"/>
<rect width="1440" height="1024" fill="url(#paint0_linear)"/>
<g style="mix-blend-mode:overlay" clip-path="url(#clip1)">
<g opacity="0.75">
<path opacity="0.75" d="M194.732 551.945L124.501 531.981L164.404 498.447L194.732 551.945Z" fill="white"/>
</g>
<path d="M-168.446 923.918L-180.448 1311.2L-181.45 1313.65L-180.515 1313.05L-180.559 1314.25L-178.934 1312.07L146.055 1107.1L148.817 1108.7L147.369 1106.43L524.219 938.558L525.399 938.691L525.31 938.402L526.022 938.335L524.887 937.132L387.298 529.686L380.039 546.932L377.077 538.978L376.209 539.735L51.6427 660.48L50.9079 659.5L-3.20128 873.695L-169.804 923.161L-168.446 923.918ZM-47.4461 992.301L62.1751 982.809L24.2764 1034.08L-47.4461 992.301ZM23.2076 1035.55L-175.994 1305.12L-49.5615 993.148L23.2076 1035.55ZM89.252 886.396L64.4241 977.038L-0.640574 875.522L89.252 886.396ZM66.6953 980.581L65.7378 979.11L91.0556 886.641L230.203 903.486L203.304 967.502L66.6953 980.581ZM202.503 969.373L145.877 1104.11L67.7864 982.297L202.503 969.373ZM232.074 903.687L233.276 903.82L233.098 903.597L515.668 937.533L205.353 967.279L232.074 903.687ZM232.875 901.748L232.942 901.57L233.476 901.614L233.61 899.988L265.43 824.296L518.184 936.017L232.875 901.748ZM234.122 894.172L240.847 813.423L263.782 823.561L234.122 894.172ZM231.851 899.564L231.205 901.08L128.865 763.935L239.088 812.665L231.851 899.564ZM64.58 982.586L64.8026 982.564L65.7824 982.475L75.5354 997.671L143.294 1103.38L25.8796 1034.99L64.58 982.586ZM204.551 969.173L518.674 939.07L147.77 1104.29L204.551 969.173ZM520.344 935.015L266.12 822.648L311.79 714.001L520.344 935.015ZM312.569 712.152L379.927 551.856L521.68 933.789L312.569 712.152ZM264.472 821.912L241.003 811.529L254.229 652.949L310.432 712.531L264.472 821.912ZM252.47 651.1L252.559 651.189L239.244 810.749L127.351 761.283L252.47 651.1ZM125.726 762.732L229.134 901.302L91.5677 884.769L124.746 763.578L125.726 762.732ZM89.7641 884.569L-0.306546 873.74L122.296 765.762L89.7641 884.569ZM63.8006 979.378L63.3998 980.871L-48.5372 990.563L-2.24381 876.347L63.8006 979.378ZM-51.3206 992.636L-178.466 1306.36L-166.642 924.943L-51.7214 991.878L-51.6546 992.658L-51.3206 992.636ZM24.7663 1036.46L144.319 1106.07L-175.95 1308.08L24.7663 1036.46ZM387.097 534.789L503.822 880.469L380.952 549.405L387.097 534.789ZM311.211 710.726L253.851 649.919L376.298 542.075L379.014 549.383L311.211 710.726ZM372.423 543.077L125.993 760.102L52.7784 661.996L372.423 543.077ZM123.811 760.192L123.143 762.62L-0.84097 871.823L51.754 663.644L123.811 760.192ZM-3.98065 875.79L-50.4745 990.519L-165.262 923.673L-3.98065 875.79Z" fill="white"/>
<path d="M-11.9301 880.134C-14.8693 874.942 -13.0434 868.347 -7.85515 865.406C-2.6669 862.465 3.92419 864.292 6.86346 869.483C9.80273 874.675 7.97682 881.27 2.78856 884.212C-2.42196 887.153 -9.01305 885.348 -11.9301 880.134Z" fill="white"/>
<path d="M83.7965 889.894C81.5029 885.861 82.928 880.736 86.9584 878.441C90.9888 876.169 96.1103 877.572 98.4038 881.605C100.697 885.638 99.2722 890.763 95.2418 893.058C91.2114 895.353 86.09 893.927 83.7965 889.894Z" fill="white"/>
<path d="M116.106 769.862C113.056 764.47 114.948 757.651 120.337 754.599C125.703 751.546 132.539 753.44 135.59 758.832C138.64 764.224 136.748 771.043 131.359 774.095C125.97 777.126 119.157 775.232 116.106 769.862Z" fill="white"/>
<path d="M43.5819 665.382C40.5536 660.012 42.4241 653.194 47.8127 650.141C53.1791 647.089 59.9929 648.983 63.0435 654.375C66.0718 659.745 64.2014 666.563 58.8127 669.616C53.4463 672.646 46.6326 670.752 43.5819 665.382Z" fill="white"/>
<path d="M54.493 985.394C51.4646 980.024 53.3351 973.206 58.7237 970.153C64.0901 967.101 70.9038 968.995 73.9544 974.387C76.9827 979.757 75.09 986.575 69.7236 989.605C64.3573 992.658 57.5435 990.764 54.493 985.394Z" fill="white"/>
<path d="M245.701 653.796C243.096 649.184 244.721 643.324 249.331 640.717C253.94 638.11 259.796 639.736 262.424 644.349C265.029 648.961 263.403 654.821 258.794 657.45C254.163 660.035 248.306 658.408 245.701 653.796Z" fill="white"/>
<path d="M224.636 905.759C222.476 901.904 223.812 897.024 227.665 894.863C231.494 892.679 236.393 894.038 238.553 897.893C240.735 901.748 239.377 906.627 235.525 908.789C231.673 910.95 226.796 909.591 224.636 905.759Z" fill="white"/>
<path d="M124.568 373L60.1266 385.077L96.3775 425.362L124.568 373ZM64.4464 386.547L120.404 376.053L95.9098 421.53L64.4464 386.547Z" fill="white"/>
<path d="M70.7257 516.651L-0.0393982 519.369L84.3309 557.515L70.7257 516.651ZM69.1447 518.946L80.6123 553.371L9.49095 521.241L69.1447 518.946Z" fill="white"/>
</g>
<line x1="135" y1="384.5" x2="583" y2="384.5" stroke="#FFF8F8"/>
<rect x="1439.87" y="1217.28" width="1583.27" height="389.969" transform="rotate(-175.267 1439.87 1217.28)" fill="url(#paint1_linear)"/>
</g>
<defs>
<linearGradient id="paint0_linear" x1="720" y1="0" x2="720" y2="1007" gradientUnits="userSpaceOnUse">
<stop stop-color="#8057EB" stop-opacity="0.92"/>
<stop offset="0.401042" stop-color="#7000FF" stop-opacity="0.27"/>
<stop offset="1" stop-color="#BC84E6"/>
</linearGradient>
<linearGradient id="paint1_linear" x1="2231.5" y1="1217.28" x2="2231.5" y2="1607.25" gradientUnits="userSpaceOnUse">
<stop stop-color="#E87AF7"/>
<stop offset="0.915851" stop-color="#E18AFF" stop-opacity="0"/>
</linearGradient>
<clipPath id="clip0">
<rect width="1440" height="1024" fill="white"/>
</clipPath>
<clipPath id="clip1">
<rect width="936" height="947" fill="white" transform="translate(-410 373)"/>
</clipPath>
</defs>
</svg>
