<svg width="682" height="690" viewBox="0 0 682 690" fill="none" xmlns="http://www.w3.org/2000/svg">
<g style="mix-blend-mode:overlay" clip-path="url(#clip0)">
<g opacity="0.75">
<path opacity="0.75" d="M88.1806 490.099L95.0436 453.084L70.366 450.34L88.1806 490.099Z" fill="white"/>
<path opacity="0.75" d="M127.363 421.49L124.621 384.459L102.702 395.434L127.363 421.49Z" fill="white"/>
<path opacity="0.75" d="M440.627 130.383L389.455 115.836L418.529 91.4026L440.627 130.383Z" fill="white"/>
</g>
<path d="M176.004 401.408L167.259 683.587L166.529 685.373L167.21 684.935L167.178 685.812L168.362 684.221L405.16 534.876L407.172 536.044L406.117 534.389L680.702 412.075L681.562 412.172L681.497 411.961L682.016 411.912L681.189 411.036L580.937 114.164L575.648 126.73L573.49 120.934L572.857 121.486L336.368 209.463L335.833 208.749L296.407 364.815L175.015 400.856L176.004 401.408ZM264.169 451.233L344.042 444.317L316.428 481.674L264.169 451.233ZM315.649 482.745L170.504 679.155L262.627 451.85L315.649 482.745ZM363.771 374.069L345.681 440.112L298.273 366.146L363.771 374.069ZM347.336 442.694L346.638 441.622L365.085 374.247L466.473 386.521L446.873 433.164L347.336 442.694ZM446.289 434.528L405.03 532.7L348.131 443.944L446.289 434.528ZM467.836 386.667L468.712 386.764L468.582 386.602L674.472 411.328L448.366 433.001L467.836 386.667ZM468.42 385.255L468.468 385.125L468.858 385.157L468.955 383.972L492.14 328.822L676.305 410.224L468.42 385.255ZM469.328 379.735L474.228 320.899L490.939 328.286L469.328 379.735ZM467.673 383.664L467.203 384.768L392.635 284.842L472.946 320.347L467.673 383.664ZM345.794 444.155L345.957 444.139L346.671 444.074L353.777 455.146L403.148 532.164L317.596 482.339L345.794 444.155ZM447.782 434.381L676.662 412.448L406.409 532.83L447.782 434.381ZM677.879 409.493L492.643 327.621L525.92 248.459L677.879 409.493ZM526.488 247.112L575.567 130.318L678.853 408.6L526.488 247.112ZM491.442 327.085L474.342 319.519L483.979 203.976L524.93 247.388L491.442 327.085ZM482.697 202.628L482.762 202.693L473.06 318.951L391.531 282.91L482.697 202.628ZM390.347 283.965L465.694 384.93L365.459 372.884L389.633 284.582L390.347 283.965ZM364.144 372.737L298.516 364.847L387.849 286.173L364.144 372.737ZM345.227 441.817L344.935 442.905L263.374 449.967L297.104 366.747L345.227 441.817ZM261.345 451.477L168.703 680.064L177.318 402.155L261.053 450.925L261.102 451.493L261.345 451.477ZM316.785 483.411L403.895 534.129L170.537 681.314L316.785 483.411ZM580.791 117.882L665.84 369.75L576.313 128.532L580.791 117.882ZM525.498 246.073L483.703 201.768L572.922 123.191L574.902 128.516L525.498 246.073ZM570.099 123.921L390.542 282.049L337.195 210.567L570.099 123.921ZM388.952 282.114L388.465 283.884L298.127 363.451L336.449 211.768L388.952 282.114ZM295.839 366.341L261.962 449.935L178.324 401.23L295.839 366.341Z" fill="white"/>
<path d="M290.047 369.506C287.905 365.724 289.235 360.918 293.016 358.775C296.796 356.632 301.599 357.963 303.74 361.746C305.882 365.529 304.551 370.334 300.771 372.477C296.975 374.62 292.172 373.305 290.047 369.506Z" fill="white"/>
<path d="M359.796 376.618C358.125 373.679 359.163 369.945 362.1 368.273C365.037 366.617 368.768 367.64 370.44 370.578C372.111 373.517 371.072 377.251 368.136 378.923C365.199 380.595 361.467 379.556 359.796 376.618Z" fill="white"/>
<path d="M383.338 289.16C381.115 285.231 382.494 280.263 386.421 278.039C390.331 275.815 395.312 277.195 397.535 281.124C399.757 285.053 398.378 290.02 394.452 292.245C390.526 294.453 385.561 293.073 383.338 289.16Z" fill="white"/>
<path d="M170.537 407.545C167.811 402.724 169.498 396.603 174.333 393.859C179.152 391.132 185.285 392.837 188.01 397.658C190.736 402.48 189.049 408.617 184.214 411.344C179.379 414.072 173.262 412.367 170.537 407.545Z" fill="white"/>
<path d="M330.495 213.035C328.288 209.122 329.651 204.154 333.577 201.93C337.487 199.706 342.452 201.086 344.675 205.015C346.881 208.927 345.519 213.895 341.592 216.119C337.682 218.327 332.717 216.947 330.495 213.035Z" fill="white"/>
<path d="M338.445 446.201C336.238 442.288 337.601 437.32 341.527 435.096C345.437 432.872 350.402 434.252 352.625 438.181C354.831 442.093 353.452 447.061 349.542 449.269C345.632 451.493 340.667 450.113 338.445 446.201Z" fill="white"/>
<path d="M477.765 204.593C475.867 201.232 477.051 196.962 480.41 195.063C483.768 193.164 488.035 194.349 489.95 197.709C491.848 201.07 490.664 205.34 487.305 207.255C483.93 209.139 479.663 207.953 477.765 204.593Z" fill="white"/>
<path d="M163.122 686.445C161.224 683.084 162.408 678.815 165.766 676.899C169.125 674.999 173.392 676.185 175.306 679.545C177.205 682.906 176.02 687.176 172.662 689.075C169.303 690.991 165.036 689.806 163.122 686.445Z" fill="white"/>
<path d="M462.417 388.177C460.843 385.368 461.816 381.813 464.623 380.238C467.414 378.647 470.983 379.637 472.557 382.446C474.147 385.254 473.157 388.81 470.35 390.385C467.544 391.959 463.99 390.969 462.417 388.177Z" fill="white"/>
<path d="M389.503 0L342.55 8.79932L368.963 38.152L389.503 0ZM345.697 9.87083L386.469 2.22418L368.622 35.3596L345.697 9.87083Z" fill="white"/>
<path d="M350.272 104.666L298.711 106.647L360.186 134.441L350.272 104.666ZM349.12 106.338L357.476 131.421L305.655 108.011L349.12 106.338Z" fill="white"/>
<path d="M281.74 320.932L252.227 330.023L267.787 343.011L281.74 320.932ZM255.57 330.689L278.024 323.773L267.413 340.56L255.57 330.689Z" fill="white"/>
<path d="M51.3183 406.539L0 455.893L25.4077 476.333L51.3183 406.539ZM47.3271 412.627L24.6776 473.654L2.44991 455.779L47.3271 412.627Z" fill="white"/>
</g>
<defs>
<clipPath id="clip0">
<rect width="682" height="690" fill="white"/>
</clipPath>
</defs>
</svg>
