<svg width="937" height="947" viewBox="0 0 937 947" fill="none" xmlns="http://www.w3.org/2000/svg">
<g style="mix-blend-mode:overlay">
<g opacity="0.75">
<path opacity="0.75" d="M121.022 672.643L130.441 621.841L96.5726 618.075L121.022 672.643Z" fill="white"/>
<path opacity="0.75" d="M174.797 578.48L171.034 527.655L140.951 542.718L174.797 578.48Z" fill="white"/>
<path opacity="0.75" d="M604.732 178.945L534.501 158.98L574.404 125.446L604.732 178.945Z" fill="white"/>
</g>
<path d="M241.554 550.919L229.552 938.199L228.55 940.65L229.485 940.049L229.441 941.252L231.066 939.068L556.055 734.098L558.817 735.702L557.369 733.429L934.218 565.558L935.399 565.692L935.31 565.402L936.022 565.335L934.887 564.132L797.298 156.687L790.039 173.933L787.077 165.978L786.209 166.736L461.643 287.481L460.908 286.5L406.799 500.696L240.196 550.161L241.554 550.919ZM362.554 619.302L472.175 609.81L434.276 661.08L362.554 619.302ZM433.208 662.551L234.005 932.116L360.438 620.149L433.208 662.551ZM499.252 513.396L474.424 604.039L409.359 502.523L499.252 513.396ZM476.695 607.582L475.738 606.111L501.056 513.641L640.203 530.486L613.304 594.502L476.695 607.582ZM612.503 596.374L555.877 731.112L477.786 609.297L612.503 596.374ZM642.073 530.687L643.276 530.821L643.098 530.598L925.668 564.533L615.353 594.279L642.073 530.687ZM642.875 528.749L642.942 528.57L643.476 528.615L643.61 526.988L675.43 451.297L928.184 563.018L642.875 528.749ZM644.122 521.173L650.847 440.423L673.782 450.562L644.122 521.173ZM641.851 526.565L641.205 528.08L538.865 390.935L649.088 439.666L641.851 526.565ZM474.58 609.587L474.803 609.565L475.782 609.476L485.535 624.672L553.294 730.377L435.88 661.994L474.58 609.587ZM614.551 596.173L928.674 566.071L557.77 731.29L614.551 596.173ZM930.344 562.015L676.12 449.648L721.79 341.002L930.344 562.015ZM722.569 339.152L789.927 178.857L931.68 560.79L722.569 339.152ZM674.472 448.913L651.003 438.529L664.229 279.95L720.432 339.531L674.472 448.913ZM662.47 278.1L662.559 278.189L649.243 437.75L537.351 388.284L662.47 278.1ZM535.725 389.732L639.134 528.303L501.568 511.77L534.746 390.579L535.725 389.732ZM499.764 511.569L409.693 500.74L532.296 392.763L499.764 511.569ZM473.801 606.378L473.4 607.871L361.463 617.564L407.756 503.347L473.801 606.378ZM358.679 619.636L231.534 933.364L243.358 551.944L358.278 618.878L358.345 619.658L358.679 619.636ZM434.766 663.464L554.319 733.073L234.05 935.08L434.766 663.464ZM797.097 161.789L913.822 507.469L790.952 176.406L797.097 161.789ZM721.211 337.726L663.851 276.919L786.298 169.075L789.014 176.384L721.211 337.726ZM782.423 170.078L535.993 387.103L462.778 288.996L782.423 170.078ZM533.811 387.192L533.142 389.621L409.159 498.824L461.754 290.645L533.811 387.192ZM406.019 502.79L359.525 617.519L244.738 550.674L406.019 502.79Z" fill="white"/>
<path d="M398.07 507.134C395.131 501.942 396.957 495.347 402.145 492.406C407.333 489.465 413.924 491.292 416.863 496.483C419.803 501.675 417.977 508.27 412.789 511.212C407.578 514.153 400.987 512.348 398.07 507.134Z" fill="white"/>
<path d="M493.796 516.894C491.503 512.861 492.928 507.736 496.958 505.441C500.989 503.169 506.11 504.572 508.404 508.605C510.697 512.638 509.272 517.763 505.242 520.058C501.211 522.353 496.09 520.927 493.796 516.894Z" fill="white"/>
<path d="M526.106 396.862C523.055 391.47 524.948 384.652 530.337 381.599C535.703 378.547 542.539 380.441 545.59 385.833C548.64 391.225 546.748 398.043 541.359 401.096C535.97 404.126 529.157 402.232 526.106 396.862Z" fill="white"/>
<path d="M234.05 559.341C230.309 552.724 232.625 544.323 239.261 540.558C245.874 536.814 254.291 539.154 258.032 545.772C261.773 552.389 259.457 560.812 252.821 564.555C246.186 568.299 237.791 565.959 234.05 559.341Z" fill="white"/>
<path d="M453.582 292.383C450.554 287.013 452.424 280.195 457.813 277.142C463.179 274.09 469.993 275.984 473.043 281.376C476.072 286.746 474.201 293.564 468.813 296.616C463.446 299.647 456.632 297.753 453.582 292.383Z" fill="white"/>
<path d="M464.493 612.395C461.465 607.025 463.335 600.206 468.724 597.154C474.09 594.101 480.904 595.995 483.954 601.387C486.983 606.757 485.09 613.576 479.724 616.606C474.357 619.658 467.543 617.764 464.493 612.395Z" fill="white"/>
<path d="M655.701 280.797C653.096 276.185 654.721 270.325 659.331 267.718C663.94 265.111 669.796 266.737 672.424 271.35C675.029 275.962 673.403 281.822 668.794 284.451C664.162 287.036 658.306 285.409 655.701 280.797Z" fill="white"/>
<path d="M223.874 942.121C221.269 937.509 222.894 931.649 227.503 929.02C232.113 926.413 237.969 928.039 240.597 932.651C243.202 937.264 241.576 943.124 236.967 945.731C232.358 948.36 226.501 946.734 223.874 942.121Z" fill="white"/>
<path d="M634.636 532.759C632.476 528.904 633.812 524.024 637.664 521.863C641.494 519.679 646.393 521.038 648.553 524.893C650.735 528.748 649.377 533.627 645.525 535.789C641.673 537.95 636.796 536.591 634.636 532.759Z" fill="white"/>
<path d="M534.568 0L470.127 12.0768L506.378 52.3623L534.568 0ZM474.446 13.5474L530.404 3.05261L505.91 48.5298L474.446 13.5474Z" fill="white"/>
<path d="M480.726 143.65L409.961 146.369L494.331 184.515L480.726 143.65ZM479.145 145.945L490.612 180.371L419.491 148.24L479.145 145.945Z" fill="white"/>
<path d="M386.669 440.467L346.165 452.945L367.519 470.77L386.669 440.467ZM350.752 453.858L381.57 444.366L367.007 467.406L350.752 453.858Z" fill="white"/>
<path d="M70.431 557.96L0 625.697L34.8704 653.749L70.431 557.96ZM64.9533 566.316L33.8683 650.073L3.36234 625.541L64.9533 566.316Z" fill="white"/>
</g>
</svg>
