<svg width="937" height="947" viewBox="0 0 937 947" fill="none" xmlns="http://www.w3.org/2000/svg">
<g style="mix-blend-mode:overlay">
<g opacity="0.75">
<path opacity="0.75" d="M815 274.346L805.581 325.148L839.45 328.914L815 274.346Z" fill="white"/>
<path opacity="0.75" d="M761.225 368.509L764.988 419.334L795.071 404.271L761.225 368.509Z" fill="white"/>
<path opacity="0.75" d="M331.291 768.044L401.521 788.009L361.619 821.543L331.291 768.044Z" fill="white"/>
</g>
<path d="M694.468 396.07L706.47 8.78992L707.472 6.33891L706.537 6.94049L706.581 5.73732L704.956 7.9209L379.967 212.891L377.206 211.287L378.653 213.56L1.80372 381.431L0.623498 381.298L0.712518 381.587L8.82289e-05 381.654L1.1356 382.857L138.724 790.303L145.984 773.057L148.945 781.011L149.813 780.254L474.38 659.508L475.114 660.489L529.224 446.294L695.826 396.828L694.468 396.07ZM573.468 327.687L463.847 337.18L501.746 285.909L573.468 327.687ZM502.815 284.438L702.017 14.8729L575.584 326.841L502.815 284.438ZM436.77 433.593L461.598 342.95L526.663 444.467L436.77 433.593ZM459.327 339.408L460.284 340.878L434.967 433.348L295.819 416.503L322.718 352.487L459.327 339.408ZM323.52 350.615L380.145 215.877L458.236 337.692L323.52 350.615ZM293.949 416.302L292.746 416.169L292.924 416.391L10.3542 382.456L320.669 352.71L293.949 416.302ZM293.147 418.241L293.08 418.419L292.546 418.374L292.412 420.001L260.593 495.692L7.83804 383.971L293.147 418.241ZM291.9 425.817L285.175 506.566L262.24 496.428L291.9 425.817ZM294.171 420.424L294.817 418.909L397.157 556.054L286.935 507.324L294.171 420.424ZM461.442 337.402L461.22 337.425L460.24 337.514L450.487 322.318L382.728 216.613L500.143 284.995L461.442 337.402ZM321.471 350.816L7.34822 380.919L378.252 215.699L321.471 350.816ZM5.67819 384.974L259.902 497.341L214.232 605.987L5.67819 384.974ZM213.453 607.837L146.095 768.132L4.34208 386.2L213.453 607.837ZM261.55 498.077L285.02 508.46L271.793 667.04L215.591 607.458L261.55 498.077ZM273.552 668.889L273.463 668.8L286.779 509.24L398.671 558.705L273.552 668.889ZM400.297 557.257L296.888 418.686L434.455 435.22L401.276 556.41L400.297 557.257ZM436.258 435.42L526.329 446.249L403.726 554.227L436.258 435.42ZM462.222 340.611L462.622 339.118L574.559 329.425L528.266 443.642L462.222 340.611ZM577.343 327.353L704.488 13.625L692.665 395.045L577.744 328.111L577.677 327.331L577.343 327.353ZM501.256 283.525L381.704 213.916L701.972 11.9094L501.256 283.525ZM138.925 785.2L22.2004 439.52L145.071 770.583L138.925 785.2ZM214.811 609.263L272.171 670.07L149.724 777.914L147.008 770.606L214.811 609.263ZM153.599 776.911L400.03 559.886L473.244 657.993L153.599 776.911ZM402.212 559.797L402.88 557.369L526.863 448.165L474.268 656.344L402.212 559.797ZM530.003 444.199L576.497 329.47L691.284 396.315L530.003 444.199Z" fill="white"/>
<path d="M537.952 439.855C540.891 445.047 539.066 451.642 533.877 454.583C528.689 457.525 522.098 455.697 519.159 450.506C516.219 445.314 518.045 438.719 523.234 435.778C528.444 432.836 535.035 434.641 537.952 439.855Z" fill="white"/>
<path d="M442.226 430.095C444.519 434.128 443.094 439.253 439.064 441.548C435.033 443.821 429.912 442.417 427.618 438.384C425.325 434.351 426.75 429.226 430.78 426.931C434.811 424.636 439.932 426.062 442.226 430.095Z" fill="white"/>
<path d="M409.916 550.127C412.967 555.519 411.074 562.337 405.685 565.39C400.319 568.443 393.483 566.549 390.432 561.156C387.382 555.764 389.275 548.946 394.663 545.893C400.052 542.863 406.866 544.757 409.916 550.127Z" fill="white"/>
<path d="M701.972 387.647C705.713 394.265 703.397 402.665 696.762 406.431C690.148 410.174 681.731 407.834 677.99 401.217C674.25 394.599 676.565 386.176 683.201 382.433C689.837 378.69 698.231 381.029 701.972 387.647Z" fill="white"/>
<path d="M482.44 654.606C485.469 659.976 483.598 666.794 478.209 669.847C472.843 672.9 466.029 671.006 462.979 665.614C459.95 660.244 461.821 653.425 467.209 650.373C472.576 647.342 479.39 649.236 482.44 654.606Z" fill="white"/>
<path d="M471.529 334.595C474.558 339.965 472.687 346.783 467.299 349.835C461.932 352.888 455.119 350.994 452.068 345.602C449.04 340.232 450.932 333.414 456.299 330.383C461.665 327.331 468.479 329.225 471.529 334.595Z" fill="white"/>
<path d="M280.321 666.192C282.926 670.804 281.301 676.665 276.692 679.271C272.082 681.878 266.226 680.252 263.598 675.64C260.993 671.027 262.619 665.167 267.228 662.538C271.86 659.953 277.716 661.58 280.321 666.192Z" fill="white"/>
<path d="M712.148 4.86797C714.753 9.48032 713.128 15.3405 708.519 17.9697C703.909 20.5767 698.053 18.9501 695.426 14.3378C692.82 9.72542 694.446 3.8653 699.055 1.25832C703.664 -1.37094 709.521 0.255626 712.148 4.86797Z" fill="white"/>
<path d="M301.386 414.23C303.546 418.085 302.21 422.964 298.358 425.126C294.528 427.309 289.629 425.95 287.469 422.095C285.287 418.241 286.645 413.361 290.497 411.199C294.35 409.038 299.226 410.397 301.386 414.23Z" fill="white"/>
<path d="M401.454 946.989L465.896 934.913L429.645 894.627L401.454 946.989ZM461.576 933.442L405.618 943.937L430.112 898.459L461.576 933.442Z" fill="white"/>
<path d="M455.297 803.339L526.062 800.62L441.691 762.474L455.297 803.339ZM456.878 801.044L445.41 766.618L516.531 798.749L456.878 801.044Z" fill="white"/>
<path d="M549.353 506.522L589.857 494.045L568.503 476.219L549.353 506.522ZM585.27 493.131L554.452 502.623L569.015 479.584L585.27 493.131Z" fill="white"/>
<path d="M865.591 389.029L936.022 321.293L901.152 293.24L865.591 389.029ZM871.069 380.674L902.154 296.916L932.66 321.449L871.069 380.674Z" fill="white"/>
</g>
</svg>
