<?xml version="1.0" standalone="no"?>
<!DOCTYPE svg PUBLIC "-//W3C//DTD SVG 20010904//EN"
 "http://www.w3.org/TR/2001/REC-SVG-20010904/DTD/svg10.dtd">
<svg version="1.0" xmlns="http://www.w3.org/2000/svg"
 width="103" height="103" viewBox="0 0 321.000000 321.000000"
 preserveAspectRatio="xMidYMid meet">

<g transform="translate(0.000000,321.000000) scale(0.100000,-0.100000)"
fill="#000000" stroke="none">
<path d="M1470 3200 c-657 -56 -1220 -520 -1403 -1156 -42 -146 -59 -273 -59
-444 -1 -446 169 -843 494 -1155 598 -576 1536 -597 2164 -48 260 227 439 535
515 885 26 122 36 368 20 507 -40 343 -192 665 -431 915 -283 295 -625 460
-1031 496 -124 11 -141 11 -269 0z m-899 -903 c50 -33 72 -85 71 -168 0 -133
-61 -189 -202 -189 l-70 0 0 190 0 190 84 0 c70 0 89 -4 117 -23z m357 -160
c34 -100 62 -185 62 -189 0 -5 -16 -8 -35 -8 -31 0 -35 3 -46 40 l-12 40 -67
0 -67 0 -12 -40 c-11 -37 -15 -40 -46 -40 -19 0 -35 3 -35 8 0 4 28 89 62 189
l63 183 35 0 35 0 63 -183z m302 148 c0 -34 -1 -35 -40 -35 l-40 0 0 -155 0
-155 -35 0 -35 0 0 155 0 155 -45 0 c-45 0 -45 0 -45 35 l0 35 120 0 120 0 0
-35z m266 -157 l62 -188 -37 0 c-35 0 -39 3 -50 40 l-12 40 -64 0 -64 0 -12
-40 c-11 -37 -15 -40 -50 -40 l-38 0 59 173 c77 228 66 209 108 205 l35 -3 63
-187z m-907 -336 c40 -19 43 -27 20 -60 -15 -21 -18 -22 -52 -7 -46 19 -91 19
-107 0 -22 -26 -3 -43 71 -65 86 -26 119 -55 119 -105 0 -56 -23 -91 -75 -110
-53 -21 -115 -16 -174 15 -52 26 -56 35 -32 69 l21 29 45 -24 c30 -18 56 -24
82 -22 33 3 38 6 38 28 0 22 -8 27 -55 42 -111 36 -140 62 -140 128 0 36 42
87 83 100 41 12 111 4 156 -18z m414 2 c17 -9 40 -23 50 -32 17 -15 16 -17 -9
-43 -27 -28 -27 -28 -53 -10 -37 26 -72 32 -114 20 -50 -14 -77 -51 -77 -106
0 -38 5 -50 35 -80 33 -33 39 -35 81 -30 25 2 59 14 74 25 l27 21 28 -29 27
-28 -34 -25 c-100 -76 -249 -50 -307 53 -25 44 -28 124 -7 174 40 95 180 140
279 90z m1462 -1 c16 -9 38 -22 48 -31 17 -15 16 -17 -9 -43 l-26 -27 -48 25
c-56 29 -94 26 -139 -13 -57 -47 -46 -146 20 -179 41 -21 102 -15 133 14 l22
21 30 -31 c29 -30 29 -31 9 -46 -47 -36 -107 -55 -156 -50 -130 16 -210 122
-179 237 11 42 58 103 94 122 56 30 142 30 201 1z m-1225 -168 l0 -185 -45 0
-45 0 0 185 0 185 45 0 45 0 0 -185z m380 145 l0 -40 -95 0 -95 0 0 -35 0 -35
85 0 85 0 0 -35 0 -35 -85 0 -85 0 0 -40 0 -40 100 0 100 0 0 -35 0 -35 -145
0 -145 0 0 185 0 185 140 0 140 0 0 -40z m272 -76 l93 -116 3 116 3 116 44 0
45 0 0 -185 0 -185 -47 0 -48 1 -85 109 -85 109 -3 -110 -3 -109 -44 0 -45 0
0 185 0 185 40 0 c39 0 42 -3 132 -116z m998 76 l0 -40 -100 0 -100 0 0 -35 0
-35 90 0 90 0 0 -35 0 -35 -90 0 -90 0 0 -40 0 -40 100 0 100 0 0 -35 0 -35
-140 0 -140 0 0 185 0 185 140 0 140 0 0 -40z m-1449 -476 c67 -34 98 -136 64
-208 -25 -53 -68 -79 -137 -84 -50 -4 -64 -1 -97 21 -85 56 -96 184 -23 250
50 45 130 54 193 21z m972 -1 c32 -16 32 -16 11 -48 -15 -23 -17 -23 -39 -9
-34 22 -90 15 -90 -11 0 -15 13 -24 55 -38 72 -23 95 -46 95 -98 0 -58 -37
-89 -107 -89 -53 0 -116 24 -125 47 -3 8 3 23 12 33 18 20 18 20 50 0 38 -24
78 -26 95 -5 17 21 6 32 -55 51 -31 10 -64 26 -75 36 -24 23 -27 84 -5 116 29
41 113 48 178 15z m-1973 -138 l0 -155 -35 0 -35 0 0 155 0 155 35 0 35 0 0
-155z m215 60 l70 -94 3 95 3 94 34 0 35 0 0 -155 0 -155 -34 0 c-31 0 -40 7
-102 92 l-69 92 -3 -92 -3 -92 -34 0 -35 0 0 155 0 155 33 0 c29 -1 39 -10
102 -95z m434 69 c36 -21 71 -86 71 -130 0 -16 -9 -48 -20 -72 -27 -59 -78
-81 -182 -82 l-78 0 0 156 0 157 89 -5 c61 -4 98 -11 120 -24z m626 -69 l70
-94 3 95 3 94 34 0 35 0 0 -155 0 -155 -34 0 c-31 0 -40 7 -102 92 l-69 92 -3
-92 -3 -92 -34 0 -35 0 0 155 0 155 33 0 c29 -1 39 -10 102 -95z m445 65 l0
-30 -75 0 -75 0 0 -35 0 -35 71 0 70 0 -3 -27 c-3 -27 -5 -28 -70 -31 -68 -3
-68 -3 -68 -32 l0 -30 80 0 80 0 0 -30 0 -30 -115 0 -115 0 0 155 0 155 110 0
110 0 0 -30z m410 -125 l0 -155 -30 0 -30 0 0 155 0 155 30 0 30 0 0 -155z
m306 0 c35 -82 64 -150 64 -152 0 -2 -16 -3 -35 -3 -31 0 -38 5 -52 35 -16 34
-18 35 -79 35 -63 0 -63 0 -75 -35 -12 -32 -17 -35 -51 -35 l-38 0 13 33 c8
17 38 87 67 155 l54 123 34 -3 c33 -3 34 -4 98 -153z"/>
<path d="M440 2135 l0 -115 38 0 c48 0 77 21 92 65 27 82 -22 165 -96 165
l-34 0 0 -115z"/>
<path d="M821 2177 c-6 -15 -14 -39 -17 -52 -6 -23 -3 -25 31 -25 24 0 34 4
29 11 -4 7 -13 30 -19 53 l-13 41 -11 -28z"/>
<path d="M1377 2156 c-9 -27 -17 -51 -17 -53 0 -2 16 -3 36 -3 39 0 39 2 10
75 l-12 30 -17 -49z"/>
<path d="M1296 1219 c-17 -19 -26 -43 -26 -64 0 -51 42 -95 90 -95 48 0 90 44
90 95 0 51 -42 95 -90 95 -30 0 -44 -6 -64 -31z"/>
<path d="M950 1156 l0 -96 33 0 c71 0 114 49 101 115 -8 43 -36 65 -94 72
l-40 6 0 -97z"/>
<path d="M2758 1174 l-16 -39 30 -3 c16 -2 32 -1 35 1 2 3 -4 22 -15 42 l-19
38 -15 -39z"/>
</g>
</svg>
